<?xml version="1.0" encoding="UTF-8"?>
<svg width="551px" height="61px" viewBox="0 0 551 61" version="1.1" xmlns="http://www.w3.org/2000/svg" xmlns:xlink="http://www.w3.org/1999/xlink">
    <!-- Generator: Sketch 55 (78076) - https://sketchapp.com -->
    <title>编组</title>
    <desc>Created with Sketch.</desc>
    <g id="页面1" stroke="none" stroke-width="1" fill="none" fill-rule="evenodd">
        <g id="Logo" transform="translate(-22.000000, -507.000000)" fill="#545453">
            <g id="编组" transform="translate(297.500000, 537.500000) rotate(-90.000000) translate(-297.500000, -537.500000) translate(267.000000, 262.000000)">
                <path d="M18.9374455,275.209 C18.9796455,275.2553 19.0232455,275.3003 19.0655455,275.3467 C19.1323455,275.2404 19.1895455,275.1286 19.2658455,275.0318 C20.3603455,273.6375 21.4903455,272.269 22.5507455,270.8488 C26.6901455,265.2987 30.1235455,259.3246 33.0880455,253.0767 C36.0648455,246.7987 38.5046455,240.3149 40.5177455,233.6635 C42.2555455,227.9253 43.6689455,222.1094 44.7553455,216.2171 C45.6507455,211.3635 46.4195455,206.4826 46.7684455,201.554 C47.0928455,196.9648 47.4785455,192.3729 47.5698455,187.7768 C47.6653455,183.0104 47.5957455,178.2263 47.3082455,173.4681 C47.0328455,168.9252 46.4413455,164.3973 45.8784455,159.8763 C45.5376455,157.1394 45.0892455,154.4052 44.5058455,151.7092 C43.7562455,148.2499 42.8880455,144.8138 41.9529455,141.3995 C40.2506455,135.1829 37.9716455,129.1748 35.2143455,123.348 C35.0180455,122.935 34.8027455,122.5302 34.5968455,122.1213 C34.5273455,122.2576 34.5614455,122.3489 34.5914455,122.4402 C35.7268455,125.8831 36.8703455,129.322 37.9934455,132.769 C38.2824455,133.6563 38.2224455,133.7531 37.2615455,133.7817 C33.7804455,133.8826 30.2979455,133.9466 26.8169455,134.0352 C26.4039455,134.0461 26.2362455,133.8635 26.0972455,133.4927 C24.8132455,130.0962 24.2967455,126.6096 24.7955455,122.9936 C25.1199455,120.6301 25.9255455,118.4643 27.3879455,116.5589 C29.8032455,113.409 33.0294455,111.7039 36.9221455,111.141 C40.5968455,110.6094 44.2087455,110.8016 47.7170455,112.0637 C55.5202455,114.8742 58.3498455,122.4525 56.3803455,129.3411 C55.8119455,131.331 54.8210455,133.1629 53.5970455,134.8517 C53.4771455,135.0166 53.3312455,135.3478 53.4035455,135.4405 C54.2049455,136.4614 55.0459455,137.4509 55.9373455,138.5236 C56.1526455,138.1174 56.3216455,137.8298 56.4634455,137.5286 C57.9436455,134.3828 58.8037455,131.0871 58.9958455,127.6046 C59.1812455,124.2707 59.0844455,120.9723 58.0131455,117.7788 C56.3326455,112.7684 52.9837455,109.2369 48.1886455,107.1242 C44.1773455,105.3578 39.9630455,105.1397 35.7186455,106.0815 C32.2906455,106.8421 29.3275455,108.5376 27.0172455,111.1955 C24.0813455,114.5743 22.7101455,118.6034 22.5370455,123.0399 C22.3926455,126.7446 22.6488455,130.4274 23.4244455,134.0584 C23.7188455,135.4364 24.1263455,136.7912 24.5038455,138.1515 C24.5843455,138.4418 24.6797455,138.713 25.1390455,138.6899 C28.1935455,138.5358 31.2493455,138.3559 34.3065455,138.3205 C35.8808455,138.3028 37.4591455,138.5467 39.0320455,138.713 C39.2460455,138.7362 39.5718455,138.9665 39.6140455,139.1533 C40.2342455,141.9093 40.8557455,144.6666 41.3941455,147.4389 C41.8507455,149.7969 42.2419455,152.1699 42.5881455,154.547 C42.9697455,157.1557 43.2614455,159.7781 43.6076455,162.3924 C43.6635455,162.8176 43.4795455,162.9062 43.1169455,162.8994 C36.6359455,162.7849 30.1562455,162.6732 23.6765455,162.5641 C23.5225455,162.5614 23.3685455,162.5859 23.1231455,162.605 C23.8264455,164.1915 24.4807455,165.6936 25.1704455,167.1792 C25.2249455,167.2978 25.5247455,167.3537 25.7087455,167.351 C31.5778455,167.2719 37.4482455,167.186 43.3173455,167.0852 C43.8202455,167.0756 44.0451455,167.2283 44.0669455,167.7462 C44.1283455,169.2646 44.2673455,170.7816 44.2864455,172.3 C44.3518455,177.4099 44.3750455,182.5211 44.4281455,187.631 C44.4336455,188.2389 44.0710455,188.2375 43.6376455,188.2375 C38.9707455,188.2321 34.3024455,188.2362 29.6342455,188.2321 C29.3398455,188.2307 29.0454455,188.1857 28.7509455,188.1721 C26.9082455,188.0862 25.0654455,188.0031 23.1245455,187.9145 C23.7692455,189.3702 24.3962455,190.7454 24.9850455,192.1371 C25.1758455,192.5868 25.4252455,192.7749 25.9336455,192.7518 C27.9154455,192.6604 29.8986455,192.5732 31.8804455,192.5569 C35.5564455,192.5269 39.2310455,192.5405 42.9070455,192.5528 C44.2550455,192.5582 44.3150455,192.2652 44.1637455,193.9389 C43.9238455,196.6077 43.6117455,199.271 43.3773455,201.9397 C43.2955455,202.8584 43.3009455,202.8121 42.4027455,202.8107 C39.6781455,202.8093 36.9521455,202.8475 34.2288455,202.7889 C31.0231455,202.7194 27.8173455,202.5613 24.6115455,202.4481 C24.1440455,202.4318 23.6765455,202.4454 23.0741455,202.4454 C23.7501455,204.0974 24.3471455,205.5762 24.9727455,207.0442 C25.0245455,207.1655 25.2753455,207.2704 25.4320455,207.2691 C26.7841455,207.2568 28.1335455,207.2118 29.4856455,207.1914 C33.7709455,207.1259 38.0575455,207.0701 42.3428455,207.0033 C42.7994455,206.9965 42.9220455,207.16 42.8471455,207.6153 C42.3400455,210.6943 41.8480455,213.7746 41.3737455,216.8591 C41.2878455,217.4111 41.0847455,217.6633 40.4795455,217.6428 C38.6654455,217.5815 36.8485455,217.5801 35.0330455,217.5406 C31.0272455,217.4547 27.0199455,217.3593 22.9364455,217.2653 C22.9364455,217.4615 22.9241455,217.6864 22.9391455,217.91 C23.0155455,219.0672 23.1695455,220.2257 23.1681455,221.3829 C23.1613455,224.9294 23.1286455,228.4773 23.0332455,232.0224 C23.0073455,232.9888 23.1408455,233.7248 24.0541455,234.2346 C24.6197455,234.5494 25.0981455,235.0197 25.6215455,235.4122 C25.7428455,235.5022 25.8873455,235.5581 26.1054455,235.6753 C25.9663455,234.5685 25.7455455,233.5681 25.7305455,232.5649 C25.6815455,229.2501 25.7156455,225.9339 25.6924455,222.6178 C25.6897455,222.1012 25.9200455,221.9499 26.3712455,221.9458 C30.8895455,221.9008 35.4092455,221.8558 39.9275455,221.8054 C40.3773455,221.8 40.4564455,221.984 40.3555455,222.3956 C40.0884455,223.5023 39.8771455,224.6227 39.6059455,225.7281 C38.2101455,231.4432 36.6918455,237.1241 34.8544455,242.7152 C34.7181455,243.1309 34.5042455,243.338 34.0353455,243.3203 C30.5801455,243.1908 27.1222455,243.0859 23.6656455,242.9564 C22.9623455,242.9305 22.9023455,242.9469 22.9364455,243.6652 C23.0236455,245.4984 23.1926455,247.3316 23.1954455,249.1649 C23.2008455,252.1403 23.0918455,255.1171 23.0509455,258.0925 C23.0454455,258.4809 23.0073455,259.0207 23.2294455,259.2306 C24.0922455,260.0497 25.0531455,260.7653 26.1245455,261.6376 C26.0740455,261.1824 26.0468455,260.918 26.0154455,260.6549 C25.9145455,259.8385 25.7346455,259.022 25.7251455,258.2043 C25.6897455,254.9113 25.7115455,251.6155 25.6951455,248.3212 C25.6924455,247.8005 25.8805455,247.626 26.3998455,247.6315 C28.3843455,247.6533 30.3702455,247.6383 32.3561455,247.6438 C32.5319455,247.6438 32.7077455,247.686 32.9994455,247.7255 C29.2921455,257.4641 24.8446455,266.7066 18.9374455,275.209" id="Fill-1"></path>
                <path d="M32.9727455,54.3465 C29.1931455,52.7395 26.2736455,50.0953 25.1654455,45.9818 C23.0678455,38.2086 26.7179455,31.1824 34.3466455,28.7263 C36.3325455,28.087 38.3715455,27.8035 40.4610455,27.8608 C44.1956455,27.8921 47.7667455,28.5763 50.9411455,30.6699 C53.9519455,32.6558 56.0578455,35.3163 56.7134455,38.9433 C58.0546455,46.3553 54.4317455,52.824 47.0974455,55.0648 C42.3365455,56.5205 37.5510455,56.2929 32.9727455,54.3465 M58.2208455,48.5429 C59.3440455,44.8151 59.3467455,40.9919 58.6025455,37.1959 C57.5884455,32.0274 54.7847455,28.0243 50.2500455,25.3624 C45.2042455,22.3992 39.7863455,21.9672 34.2512455,23.6886 C30.7387455,24.7804 27.8437455,26.8562 25.7761455,29.9788 C23.4222455,33.5295 22.4640455,37.4631 22.5131455,41.6815 C22.4531455,41.6897 22.3945455,41.6993 22.3345455,41.7074 C22.6098455,43.602 22.7720455,45.5197 23.1809455,47.3843 C24.1255455,51.6955 26.5475455,55.0634 30.0995455,57.6381 C33.0040455,59.7426 36.3052455,60.7158 39.8436455,60.987 C42.4428455,61.1874 45.0011455,60.9257 47.4668455,60.0997 C53.1287455,58.2011 56.5375455,54.1312 58.2208455,48.5429" id="Fill-3"></path>
                <path d="M57.6485455,96.8254 C57.8966455,96.242 58.1365455,95.6546 58.3995455,95.0235 C49.3683455,95.352 40.4666455,95.6287 31.3863455,95.2184 C31.6316455,94.9281 31.7257455,94.7945 31.8429455,94.6841 C37.7692455,89.0604 43.6887455,83.4299 49.6287455,77.8198 C52.7131455,74.9084 55.8357455,72.0352 58.9366455,69.1402 C59.1028455,68.9848 59.2296455,68.7858 59.3264455,68.6659 C53.3210455,68.7286 47.3511455,68.8335 41.3812455,68.8417 C35.3949455,68.8499 29.4086455,68.7613 23.3787455,68.715 C23.6745455,69.481 24.0193455,70.3315 24.3301455,71.1942 C24.4650455,71.5718 24.6804455,71.7122 25.0784455,71.6904 C26.5327455,71.6154 27.9870455,71.5268 29.4427455,71.5077 C35.8815455,71.4287 42.3203455,71.3701 48.7604455,71.306 C48.9826455,71.3046 49.2061455,71.3333 49.4297455,71.3483 C49.4583455,71.4028 49.4869455,71.4573 49.5155455,71.5118 C40.5361455,80.6848 30.8656455,89.1367 21.6163455,98.0507 C21.8998455,98.1352 22.1302455,98.138 22.3592455,98.1339 C24.4064455,98.0998 26.4536455,98.0276 28.5008455,98.0344 C37.5171455,98.063 46.5319455,98.1121 55.5468455,98.1571 C56.0443455,98.1598 56.6617455,98.3806 57.0025455,98.1598 C57.3582455,97.9308 57.4509455,97.2902 57.6485455,96.8254" id="Fill-4"></path>
                <path d="M25.6932455,5.2884 C25.6905455,4.8032 25.8581455,4.611 26.3488455,4.6015 C27.5510455,4.5783 28.7531455,4.4788 29.9567455,4.4774 C41.4045455,4.4584 41.9592455,4.4475 53.4070455,4.4529 C54.6296455,4.4543 55.8522455,4.5592 57.0735455,4.6424 C57.5655455,4.6751 57.8449455,4.5265 58.0180455,4.0331 C58.3111455,3.199 58.6845455,2.3934 59.0171455,1.5729 C59.2420455,1.0168 59.4560455,0.4566 59.6318455,0.0055 C51.6883455,0.03 54.6678455,0.0736 46.7542455,0.0736 C38.8407455,0.0722 30.9271455,0.0259 22.9399455,0 C22.9399455,0.1186 22.9290455,0.3653 22.9413455,0.612 C23.0299455,2.403 23.1962455,4.1939 23.1962455,5.9849 C23.1976455,9.1089 23.0940455,12.2329 23.0463455,15.3583 C23.0422455,15.6213 23.0299455,15.9989 23.1853455,16.1297 C24.0890455,16.8971 25.0417455,17.6058 26.1294455,18.4509 C25.9726455,17.1724 25.7491455,16.1106 25.7314455,15.0448 C25.6782455,11.794 25.7123455,8.5405 25.6932455,5.2884" id="Fill-5"></path>
                <path d="M50.0201455,166.2852 C50.0365455,166.9749 50.2832455,167.0989 50.9115455,167.1071 C56.6266455,167.1766 52.0973455,167.2829 57.8137455,167.3565 C58.0168455,167.3593 58.3235455,167.1671 58.4107455,166.9844 C59.0159455,165.71 59.5788455,164.4166 60.1485455,163.1258 C60.2194455,162.9636 60.2576455,162.7878 60.3121455,162.6147 C53.3336455,162.7401 56.6715455,162.8655 49.7080455,162.9922 C49.8211455,164.1085 49.9942455,165.1948 50.0201455,166.2852" id="Fill-6"></path>
                <path d="M57.9801455,188.219 C53.7194455,188.2721 55.1901455,188.2381 50.9280455,188.2299 C50.5055455,188.2299 50.2042455,188.2449 50.2002455,188.8119 C50.1947455,189.8232 50.1415455,190.8359 50.0570455,191.8446 C50.0093455,192.4116 50.2029455,192.5642 50.7590455,192.5601 C53.9866455,192.537 51.4814455,192.537 54.7090455,192.552 C56.7766455,192.5629 54.3328455,192.5629 56.3963455,192.6583 C58.2078455,192.7414 58.2078455,192.8 58.9547455,191.1276 C59.4236455,190.0781 59.8802455,189.0218 60.3613455,187.9259 C60.1937455,187.9069 60.1132455,187.8851 60.0342455,187.8891 C57.8452455,188.0036 60.1691455,188.1917 57.9801455,188.219" id="Fill-7"></path>
                <path d="M52.3771455,243.3002 C49.7207455,243.3574 41.9911455,243.3356 39.3333455,243.2974 C38.7431455,243.2892 38.4487455,243.4569 38.2960455,244.0253 C38.1556455,244.5514 37.9212455,245.0516 37.7331455,245.5641 C37.4959455,246.2101 37.2656455,246.8576 36.9821455,247.6399 L37.8121455,247.6399 C40.2805455,247.6399 42.7489455,247.629 45.2173455,247.644 C46.8406455,247.6536 51.7420455,247.6454 53.3612455,247.7462 C55.2258455,247.8635 55.2299455,247.9153 55.9918455,246.2265 C56.4661455,245.177 56.9186455,244.1193 57.4216455,242.973 C57.0440455,242.973 56.7769455,242.9594 56.5125455,242.9744 C54.5361455,243.0848 54.3548455,243.2579 52.3771455,243.3002" id="Fill-8"></path>
                <path d="M46.9202455,217.5578 C46.6831455,217.5687 46.2933455,217.7636 46.2496455,217.9394 C45.9443455,219.1825 45.7126455,220.4419 45.4359455,221.7953 C48.2914455,221.8553 54.3431455,221.9235 57.1195455,221.9521 C57.3117455,221.9548 57.5952455,221.7067 57.6866455,221.5064 C58.1963455,220.3969 58.6611455,219.2683 59.1354455,218.1439 C59.2376455,217.9012 59.3112455,217.6477 59.4271455,217.3165 C59.1313455,217.2961 58.9282455,217.2675 58.7252455,217.2715 C57.8610455,217.2906 56.9982455,217.3165 56.1341455,217.3451 C54.1537455,217.4092 48.8993455,217.4637 46.9202455,217.5578" id="Fill-9"></path>
                <path d="M56.6255455,202.5827 C55.0430455,202.6276 51.8713455,202.5854 50.2943455,202.6931 C48.6955455,202.8035 48.8918455,202.5772 48.7378455,204.1596 C48.7119455,204.4322 48.6492455,204.7021 48.6151455,204.9734 C48.5306455,205.6358 48.4529455,206.2996 48.3712455,206.9688 C48.5088455,207.0069 48.5865455,207.0465 48.6669455,207.0492 C51.1558455,207.1283 55.2284455,207.2087 57.7186455,207.2659 C57.8835455,207.27 58.1452455,207.1228 58.2052455,206.9811 C58.8172455,205.5295 59.3951455,204.0642 60.0493455,202.4423 C59.6663455,202.4423 59.4401455,202.4314 59.2138455,202.4436 C58.3510455,202.4872 57.4882455,202.5581 56.6255455,202.5827" id="Fill-10"></path>
                <path d="M2.71025555,90.7124 C1.68255555,90.8391 1.09373555,90.5706 0.747535548,89.6519 C-0.0620844525,87.508 -0.291064452,85.349 0.446315548,83.1614 C1.60077555,79.7375 4.89104555,78.4249 8.14043555,78.8965 C9.88915555,79.1501 11.3407455,79.9474 12.6015255,81.3309 C13.2598455,82.3313 13.6087755,83.374 13.6087755,84.1127 C13.6087755,85.6093 13.5024655,87.1059 13.4261355,88.6011 C13.4125055,88.8669 13.3102755,89.1299 13.2312255,89.3903 C12.7187355,91.0681 12.9136455,90.9945 11.2739655,90.4452 C11.7578255,89.5838 12.4243355,88.7537 12.7173755,87.8078 C13.6632955,84.7588 12.2226055,81.9742 9.14223555,81.1932 C7.47665555,80.7707 5.82742555,80.7693 4.22181555,81.3636 C0.693015548,82.6666 -0.355124452,87.125 2.14869555,90.0636 C2.30544555,90.2476 2.46354555,90.4275 2.71025555,90.7124" id="Fill-11"></path>
                <path d="M1.32435555,180.3466 C1.29573555,179.7755 1.26302555,179.263 1.24530555,178.7519 C1.21395555,177.8509 1.19487555,176.9486 1.16215555,176.0477 C1.13762555,175.3607 1.41840555,175.0936 2.14079555,175.1086 C4.52194555,175.1549 6.90310555,175.1359 9.28425555,175.1495 C9.73813555,175.1522 11.7431055,175.1672 13.6349455,175.1781 C13.6431255,174.7706 13.6526655,174.363 13.6703855,173.9569 C13.6935555,173.3871 13.4836555,173.2031 12.9098355,173.2058 C8.94078555,173.2263 4.97309555,173.2263 1.00541555,173.2058 C0.464305548,173.2045 0.293925548,173.3749 0.300745548,173.9105 C0.322555548,175.8528 0.302105548,177.7964 0.304835548,179.7387 C0.304835548,179.9472 0.356625548,180.1544 0.390705548,180.4038 C0.713735548,180.3848 0.975425548,180.3684 1.32435555,180.3466" id="Fill-12"></path>
                <path d="M6.14704555,157.8721 C6.14704555,158.7431 6.14704555,159.3864 6.14704555,160.0284 C6.14432555,162.5309 5.96304555,162.3319 8.19699555,161.3805 C9.10747555,160.992 10.0056955,160.575 10.9093555,160.1715 C10.9161755,160.0747 10.9216255,159.978 10.9270755,159.8812 C9.40597555,159.2419 7.88350555,158.6027 6.14704555,157.8721 M0.440175548,154.3542 C2.90311555,155.4555 5.28972555,156.5309 7.68450555,157.5873 C9.48230555,158.3805 11.2978155,159.137 13.0901555,159.9439 C13.3368555,160.0543 13.6067355,160.3446 13.6503455,160.5913 C13.6803355,160.7576 13.3777455,161.0861 13.1542155,161.1829 C9.04750555,162.967 4.92989555,164.7266 0.813645548,166.4904 C0.696425548,166.5408 0.568305548,166.5681 0.321595548,166.6444 C0.321595548,165.9956 0.254815548,165.4204 0.352945548,164.8738 C0.393835548,164.649 0.763205548,164.4213 1.03035555,164.3096 C2.21480555,163.8175 3.41014555,163.3487 4.61503555,162.9098 C5.15478555,162.7135 5.39331555,162.4055 5.37695555,161.8166 C5.34424555,160.6417 5.34151555,159.4641 5.37831555,158.2892 C5.39467555,157.7358 5.18886555,157.4223 4.68318555,157.2424 C3.55190555,156.839 2.43696555,156.3892 1.29614555,156.0144 C0.200295548,155.6532 0.185295548,155.6763 0.440175548,154.3542" id="Fill-13"></path>
                <path d="M10.8705155,102.0237 C10.8459855,101.8534 10.8555255,101.7648 10.8296255,101.7539 C9.41619555,101.1201 8.00413555,100.4863 6.57843555,99.8825 C6.49529555,99.847 6.19134555,100.0515 6.18861555,100.1483 C6.16135555,101.3627 6.17090555,102.5785 6.17090555,104.0369 C7.88827555,103.3009 9.39166555,102.6575 10.8705155,102.0237 M0.423145548,108.4257 C0.382255548,108.3426 0.361805548,108.3194 0.359085548,108.2949 C0.183255548,106.3962 0.188705548,106.4099 1.96605555,105.7693 C2.89016555,105.4367 3.78701555,105.0291 4.70567555,104.6775 C5.18000555,104.4962 5.38308555,104.1991 5.37354555,103.6852 C5.35037555,102.4544 5.40762555,101.2196 5.33674555,99.9929 C5.31902555,99.6767 5.00962555,99.2296 4.72067555,99.1042 C3.59619555,98.6149 2.43765555,98.1978 1.26956555,97.8189 C0.214605548,97.4768 0.150545548,97.4141 0.473575548,96.1697 C1.97150555,96.8443 3.45308555,97.5218 4.94420555,98.1774 C7.67019555,99.3768 10.4070955,100.5531 13.1262755,101.7689 C13.3647955,101.8752 13.6224055,102.1914 13.6496655,102.4354 C13.6687455,102.6071 13.3498055,102.9056 13.1194555,103.0051 C8.98685555,104.8015 4.84334555,106.5761 0.701195548,108.3535 C0.630315548,108.3848 0.549905548,108.3944 0.423145548,108.4257" id="Fill-14"></path>
                <path d="M9.85739555,116.6772 L9.85739555,116.6717 C9.50165555,116.6717 9.14591555,116.6704 8.79017555,116.6717 C6.79747555,116.6772 6.62164555,116.8966 7.01009555,118.8934 C7.30314555,120.405 8.15365555,121.2187 9.63114555,121.4054 C10.9736955,121.5731 12.0790855,121.0483 12.4975255,119.8693 C12.7564955,119.1401 12.8110155,118.3291 12.8846155,117.5481 C12.9418655,116.9539 12.6283755,116.6445 11.9904855,116.6704 C11.2803655,116.7004 10.5688855,116.6772 9.85739555,116.6772 M0.327325548,115.0334 C2.89248555,115.0334 5.32543555,115.0484 7.75701555,115.028 C9.42532555,115.013 11.0949955,114.9707 12.7619455,114.8944 C13.3194155,114.8685 13.5552055,114.9762 13.5252255,115.595 C13.4584355,117.0166 13.4747955,118.4409 13.4270855,119.8625 C13.3603055,121.8511 12.4620855,123.0492 10.8469355,123.36 C9.19634555,123.6775 7.37129555,122.7248 6.78792555,121.0101 C6.41855555,119.9238 6.32178555,118.7244 6.23318555,117.5659 C6.18139555,116.9021 6.01647555,116.6377 5.32952555,116.6717 C3.96379555,116.7412 2.59262555,116.7044 1.23099555,116.8067 C0.489515548,116.8625 0.216925548,116.6595 0.319145548,115.9234 C0.364125548,115.6072 0.327325548,115.2801 0.327325548,115.0334" id="Fill-15"></path>
                <path d="M0.354585548,145.3027 L0.354585548,143.4436 C0.575385548,143.4231 0.782565548,143.3863 0.988375548,143.3891 C4.57305555,143.4163 8.15774555,143.434 11.7424255,143.4913 C12.4784455,143.5036 12.7169655,143.231 12.6569955,142.5276 C12.5670355,141.47 12.5288755,140.4095 12.4648155,139.2946 L13.4407155,139.2946 C13.4570755,139.4936 13.4856955,139.6776 13.4843355,139.8616 C13.4843355,142.7348 13.4597955,145.6094 13.4884255,148.4826 C13.4952355,149.1845 13.3575755,149.5539 12.4579955,149.3031 C12.5138755,148.6421 12.6106555,147.9524 12.6242855,147.2613 C12.6692655,144.9865 12.9023355,145.3136 10.7801455,145.3054 C7.52258555,145.2904 4.26638555,145.3218 1.00882555,145.3327 C0.820725548,145.3327 0.632635548,145.3163 0.354585548,145.3027" id="Fill-16"></path>
                <path d="M13.3508955,130.617 C13.3931455,130.7219 13.4272255,130.771 13.4313155,130.8214 C13.5512555,132.4856 13.5512555,132.4543 11.9047555,132.4475 C8.35278555,132.4325 4.79945555,132.4584 1.24748555,132.4502 C0.951715548,132.4488 0.416055548,132.3521 0.399695548,132.2417 C0.327455548,131.7169 0.381975548,131.1703 0.431045548,130.6347 C0.436495548,130.5802 0.717275548,130.5175 0.868565548,130.5175 C4.93984555,130.5229 9.01111555,130.5338 13.0810255,130.5474 C13.1587155,130.5474 13.2364055,130.587 13.3508955,130.617" id="Fill-17"></path>
                <polygon id="Fill-18" points="6.37821555 64.786 6.37821555 1.1913 7.05971555 1.1913 7.05971555 64.786"></polygon>
                <polygon id="Fill-19" points="6.37821555 260.4674 6.37821555 194.422 7.05971555 194.422 7.05971555 260.4674"></polygon>
                <path d="M43.4397455,340.4251 C46.4138455,349.3119 50.9457455,357.8565 57.0370455,366.0618 L53.5436455,368.8559 C47.4169455,360.4721 42.7228455,351.6944 39.4625455,342.5214 C40.6810455,341.9476 42.0058455,341.2484 43.4397455,340.4251 L43.4397455,340.4251 Z M36.8823455,323.3345 L36.8823455,332.7937 L58.8102455,332.7937 L58.8102455,337.2017 L36.8823455,337.2017 L36.8823455,375.1448 L32.6911455,375.1448 L32.6911455,351.6044 C22.8734455,356.0819 16.1198455,364.3048 12.4288255,376.2733 C10.8164055,375.0548 9.34845555,373.9617 8.02225555,372.994 C12.9304155,360.1136 21.1533455,351.4613 32.6911455,347.037 L32.6911455,337.2017 L13.2357255,337.2017 C14.8835855,341.2852 16.7822455,345.6195 18.9330455,350.2074 C17.2483455,350.2074 15.6359455,350.2782 14.0957755,350.4214 C12.3402355,346.1579 10.4947355,342.073 8.55928555,338.168 C7.77146555,336.7341 6.89369555,335.4093 5.92596555,334.1908 L10.0640255,330.9659 C11.0317555,332.1845 12.3402355,332.7937 13.9880955,332.7937 L32.6911455,332.7937 L32.6911455,323.3345 L36.8823455,323.3345 Z" id="Fill-20"></path>
                <path d="M9.63427555,420.1418 L12.9122855,421.5389 C11.6228855,426.1962 10.3157755,430.2988 8.98957555,433.8467 L5.38854555,432.3951 C7.03776555,428.3825 8.45255555,424.2976 9.63427555,420.1418 L9.63427555,420.1418 Z M17.6964455,409.8771 L17.6964455,426.2153 L21.0820455,426.2153 L21.0820455,409.8771 L17.6964455,409.8771 Z M23.8762455,409.8771 L23.8762455,426.2153 L27.1542455,426.2153 L27.1542455,409.8771 L23.8762455,409.8771 Z M33.1746455,426.2153 L33.1746455,409.8771 L29.9497455,409.8771 L29.9497455,426.2153 L33.1746455,426.2153 Z M36.1841455,406.2215 L36.1841455,414.6598 L40.5906455,415.573 L40.5906455,404.3937 L43.9231455,404.3937 L43.9231455,431.3743 L40.5906455,431.3743 L40.5906455,419.5503 L36.1841455,418.4748 L36.1841455,429.8695 L13.1821555,429.8695 L13.1821555,426.2153 L14.6869055,426.2153 L14.6869055,409.8771 L13.1821555,409.8771 L13.1821555,406.2215 L36.1841455,406.2215 Z M9.04273555,400.9549 C10.1535755,405.112 11.4620555,409.321 12.9668055,413.5844 L9.68879555,415.5199 C8.04093555,411.0056 6.66021555,406.7231 5.54937555,402.675 C6.69701555,402.3165 7.86101555,401.7427 9.04273555,400.9549 L9.04273555,400.9549 Z M34.3576455,390.528 L36.2386455,393.4298 C33.5153455,395.6515 31.3836455,397.2284 29.8420455,398.1607 L27.6926455,394.9359 C30.2005455,393.502 32.4222455,392.0341 34.3576455,390.528 L34.3576455,390.528 Z M46.0726455,425.1399 L48.1157455,425.1399 L48.1157455,386.2291 L56.4995455,386.2291 L56.4995455,390.0986 L51.6091455,390.0986 L51.6091455,405.6845 L58.5413455,405.6845 L58.5413455,409.554 L51.6091455,409.554 L51.6091455,425.1399 L56.4995455,425.1399 L56.4995455,429.0095 L46.0726455,429.0095 L46.0726455,425.1399 Z M18.3411455,385.7452 L20.6513455,388.5925 C19.0389455,390.1709 17.4442455,391.6579 15.8686455,393.055 C18.3411455,395.0967 20.6881455,396.8877 22.9098455,398.4279 L22.9098455,383.4336 L26.4563455,383.4336 L26.4563455,402.675 L22.7490455,402.675 C19.3442455,400.4165 16.1194455,398.0708 13.0744855,395.6351 C11.5683655,396.9967 10.0827055,398.2861 8.61339555,399.5033 L6.03323555,396.1176 C10.1535755,392.9282 14.2561955,389.4716 18.3411455,385.7452 L18.3411455,385.7452 Z M46.1816455,396.3861 L45.4824455,396.0113 C42.0422455,399.1993 38.5666455,402.1911 35.0555455,404.9866 L32.3690455,401.9226 C35.7002455,399.4856 38.9796455,396.9054 42.2044455,394.1835 C37.6534455,391.2803 33.1746455,387.6439 28.7680455,383.2727 C30.4867455,382.1973 31.6344455,381.3563 32.2068455,380.7471 C36.1118455,385.1537 40.7705455,388.951 46.1816455,392.1404 L46.1816455,396.3861 Z" id="Fill-21"></path>
                <path d="M36.4530455,453.8533 C39.2117455,464.6019 43.8690455,470.4233 50.4264455,471.3188 L50.4264455,462.721 C47.7754455,461.4316 45.3929455,459.9977 43.2789455,458.4221 C44.0667455,457.2745 44.8368455,456.0737 45.5891455,454.8197 C49.5664455,458.189 54.1706455,460.5716 59.4018455,461.9686 L58.4340455,465.999 C56.8584455,465.462 55.3714455,464.9059 53.9743455,464.3321 L53.9743455,489.8078 L50.5886455,489.8078 L43.2789455,486.1536 C43.8513455,484.9351 44.4074455,483.628 44.9444455,482.2296 L50.4264455,485.0782 L50.4264455,475.5127 C49.2801455,475.2251 48.1693455,474.9021 47.0953455,474.545 C42.0058455,477.6254 38.4770455,483.4113 36.5075455,491.9041 C35.1445455,490.901 33.8374455,490.0041 32.5834455,489.2163 C35.0191455,481.5849 38.6024455,476.1397 43.3320455,472.8781 C39.0331455,470.4069 35.5575455,464.9781 32.9051455,456.5943 C33.9805455,455.876 35.1636455,454.9628 36.4530455,453.8533 L36.4530455,453.8533 Z M32.6911455,446.9198 L32.6911455,484.2713 L15.1698455,484.2713 L15.1698455,480.0801 L28.9292455,480.0801 L28.9292455,451.111 L15.1698455,451.111 L15.1698455,446.9198 L32.6911455,446.9198 Z M58.4885455,443.5341 C56.5531455,446.6145 54.5468455,449.6076 52.4695455,452.5094 L49.1370455,449.7684 C51.1788455,447.1883 53.3105455,444.3219 55.5322455,441.1693 L58.4885455,443.5341 Z M26.8861455,467.7191 C23.0165455,467.6823 20.0425455,467.4138 17.9653455,466.9122 C15.3129455,475.082 12.5542255,482.8743 9.68784555,490.2917 L5.76513555,488.0346 C8.55928555,481.2619 11.4433855,473.7204 14.4174455,465.4088 C10.1539855,463.0072 7.19900555,455.3567 5.54978555,442.4601 C6.91141555,441.814 8.30985555,441.0439 9.74236555,440.147 C10.7809655,452.0065 13.0026555,459.1731 16.4060455,461.6456 C18.1970455,462.9704 21.6903455,463.5974 26.8861455,463.5279 L26.8861455,467.7191 Z M46.8254455,453.0996 C45.4283455,453.7457 44.1566455,454.4449 43.0103455,455.1959 C39.8209455,450.9324 36.3630455,446.4904 32.6366455,441.8671 L36.2921455,439.073 C39.7678455,444.1243 43.2789455,448.8007 46.8254455,453.0996 L46.8254455,453.0996 Z" id="Fill-22"></path>
                <path d="M20.0072455,550.2281 C19.0749455,549.2958 17.8209455,548.0787 16.2453455,546.5739 C22.9267455,537.9026 31.4904455,530.9881 41.9351455,525.8291 L20.6519455,525.8291 L20.6519455,538.1356 L16.8900455,538.1356 L16.8900455,525.8291 L5.87158555,525.8291 L5.87158555,521.6365 L16.8900455,521.6365 L16.8900455,508.8993 L20.6519455,508.8993 L20.6519455,521.6365 L41.9351455,521.6365 C32.8343455,517.0678 24.0553455,510.0633 15.6006455,500.6219 C16.9254455,499.2248 18.0009455,498.0431 18.8241455,497.0753 C27.1915455,507.2678 36.0415455,514.8911 45.3739455,519.9437 L45.3739455,498.2571 L49.3511455,498.2571 L49.3511455,521.6365 L59.0257455,521.6365 L59.0257455,525.8291 L49.3511455,525.8291 L49.3511455,549.2073 L45.3739455,549.2073 L45.3739455,527.3611 C34.6608455,533.0571 26.2047455,540.679 20.0072455,550.2281" id="Fill-23"></path>
                <polygon id="Fill-24" points="4.43594555 297.0897 4.43594555 294.898 57.8954455 294.898 57.8954455 297.0897"></polygon>
            </g>
        </g>
    </g>
</svg>